<?xml version="1.0" standalone="no"?>
<!DOCTYPE svg PUBLIC "-//W3C//DTD SVG 20010904//EN"
 "http://www.w3.org/TR/2001/REC-SVG-20010904/DTD/svg10.dtd">
<svg version="1.0" xmlns="http://www.w3.org/2000/svg"
 width="1024.000000pt" height="1024.000000pt" viewBox="0 0 1024.000000 1024.000000"
 preserveAspectRatio="xMidYMid meet">

<g transform="translate(0.000000,1024.000000) scale(0.100000,-0.100000)"
fill="#000000" stroke="none">
<path d="M5123 9635 c-273 -59 -469 -343 -424 -612 23 -134 37 -112 -161 -252
-201 -143 -379 -269 -411 -291 -12 -8 -62 -43 -111 -77 -49 -35 -95 -63 -103
-63 -8 0 -38 20 -66 46 -74 65 -195 121 -289 136 -291 44 -575 -169 -620 -464
-42 -277 153 -555 429 -613 88 -19 135 -19 233 1 l79 16 33 -27 c18 -15 83
-75 143 -133 134 -129 255 -245 530 -507 288 -276 307 -295 301 -311 -14 -37
-17 -147 -6 -213 29 -172 145 -324 307 -403 l88 -43 0 -250 c0 -307 16 -1930
20 -2075 3 -95 8 -986 6 -1052 -1 -22 -10 -32 -41 -48 -21 -11 -64 -40 -94
-65 -31 -25 -59 -45 -63 -45 -9 0 -56 43 -238 218 -71 69 -177 171 -235 226
-58 56 -166 159 -240 230 -74 71 -185 177 -245 235 -276 264 -345 334 -345
346 0 7 11 37 25 67 77 169 48 382 -77 547 -49 65 -53 40 61 371 44 129 81
236 81 237 0 2 21 3 48 3 327 1 592 307 544 628 -45 295 -329 508 -619 464
-296 -45 -509 -329 -465 -619 14 -95 71 -216 136 -289 l44 -50 -20 -45 c-11
-24 -51 -134 -89 -244 -38 -110 -75 -210 -81 -222 -10 -19 -20 -23 -62 -23
-62 0 -174 -23 -213 -44 -27 -13 -32 -13 -59 4 -32 20 -914 901 -914 913 0 4
10 36 22 70 31 88 31 246 -1 335 -12 35 -19 71 -16 80 3 10 24 38 48 63 166
179 448 499 475 539 l32 49 53 -24 c250 -115 569 7 696 266 79 162 79 316 0
478 -56 113 -137 194 -250 250 -162 79 -316 79 -478 0 -259 -127 -381 -446
-266 -696 l24 -53 -47 -36 c-44 -33 -75 -65 -256 -269 -143 -160 -288 -315
-294 -315 -4 0 -39 10 -79 22 -72 22 -72 22 -78 63 -16 126 -56 569 -53 596 3
31 6 33 65 45 210 43 392 237 425 457 53 352 -267 672 -620 619 -295 -45 -508
-329 -464 -619 18 -116 76 -229 163 -314 67 -66 69 -69 69 -118 0 -27 16 -206
35 -397 19 -190 35 -352 35 -358 0 -7 -27 -31 -60 -54 -161 -114 -251 -325
-222 -520 45 -294 330 -509 618 -464 42 7 96 21 119 31 42 18 44 18 72 1 31
-20 913 -901 913 -913 0 -3 -9 -35 -19 -69 -11 -35 -23 -81 -28 -103 -8 -38
-10 -40 -43 -39 -34 0 -450 63 -559 84 -29 5 -78 10 -107 10 -46 0 -54 3 -54
19 0 10 -19 56 -41 101 -107 214 -338 337 -567 302 -295 -45 -508 -329 -464
-620 45 -295 329 -508 619 -464 159 24 317 131 393 265 32 57 34 59 69 54 46
-5 325 -49 555 -87 99 -17 209 -30 246 -30 l65 0 57 -53 c99 -94 251 -157 378
-157 42 0 156 21 191 35 11 4 41 -19 100 -78 46 -46 140 -137 209 -203 69 -65
229 -218 355 -340 127 -121 244 -234 261 -250 18 -16 126 -119 240 -230 115
-110 227 -217 249 -236 38 -34 41 -41 53 -120 43 -299 326 -514 620 -470 296
45 508 329 463 623 -14 93 -29 64 128 246 51 59 110 123 130 142 20 19 106
101 191 182 85 81 169 160 185 175 17 15 104 97 194 183 91 86 210 199 265
251 56 52 149 143 208 202 l108 109 51 -15 c137 -41 271 -29 402 36 97 49 187
135 235 225 18 34 37 65 42 68 11 7 249 22 491 31 l186 7 39 -74 c108 -205
338 -325 562 -291 295 45 508 329 464 619 -45 296 -329 509 -619 465 -167 -25
-328 -139 -403 -284 -19 -37 -42 -71 -50 -74 -16 -7 -226 -19 -495 -30 l-171
-7 -18 40 c-17 39 -17 42 -1 67 10 15 23 30 30 34 6 4 65 66 130 137 66 72
124 135 130 140 6 6 84 89 173 187 89 97 199 215 245 263 l83 86 74 -35 c155
-74 312 -72 469 5 214 105 338 337 303 567 -45 295 -329 508 -619 464 -294
-45 -511 -332 -465 -614 7 -40 13 -80 15 -90 1 -9 -25 -45 -59 -80 -33 -34
-114 -121 -179 -193 -65 -71 -144 -157 -175 -190 -31 -33 -88 -94 -125 -135
-38 -41 -95 -102 -126 -135 -31 -33 -76 -83 -100 -111 -66 -77 -69 -78 -142
-52 -82 29 -234 31 -324 4 l-62 -18 -54 48 c-30 27 -81 72 -114 99 -84 69 -86
75 -63 128 81 183 28 429 -125 582 -216 217 -555 215 -773 -3 l-66 -66 -258 2
c-152 1 -283 6 -318 13 l-60 12 0 61 c-1 102 -9 327 -15 396 l-6 65 68 35 c88
45 177 135 225 225 42 80 56 131 66 230 6 61 10 71 32 82 22 10 108 38 325
103 53 16 156 48 360 110 300 91 365 110 381 110 11 0 46 -25 78 -55 121 -115
295 -171 453 -147 294 45 511 332 465 614 l-12 73 32 25 c55 44 86 79 122 143
20 34 46 79 59 99 12 21 50 84 84 141 84 142 83 140 137 116 24 -10 78 -24
120 -31 288 -45 573 170 618 465 53 352 -267 672 -619 619 -295 -45 -510 -330
-465 -618 7 -42 21 -96 31 -119 l19 -43 -28 -33 c-30 -37 -100 -150 -209 -336
-39 -67 -76 -125 -82 -128 -5 -4 -51 14 -102 39 -169 85 -320 86 -486 5 -159
-78 -274 -232 -301 -403 -15 -89 -3 -81 -220 -146 -58 -17 -139 -42 -180 -55
-41 -13 -120 -37 -175 -54 -55 -16 -161 -49 -235 -71 -74 -23 -162 -50 -195
-60 -33 -11 -81 -26 -107 -34 -43 -13 -48 -13 -48 0 0 14 65 104 350 486 52
70 156 210 231 310 75 101 229 308 343 461 114 154 223 303 242 333 35 54 35
54 87 54 332 1 598 305 549 628 -45 295 -329 508 -619 464 -177 -27 -333 -142
-412 -303 -96 -195 -74 -397 60 -575 46 -60 46 -61 30 -91 -9 -16 -45 -68 -81
-116 -192 -257 -365 -489 -530 -712 -102 -137 -229 -308 -282 -380 -53 -71
-109 -147 -124 -167 -32 -44 -44 -36 -44 30 0 24 -4 85 -10 135 -35 341 -112
1227 -107 1241 3 7 26 17 51 20 77 12 202 81 271 151 81 81 140 197 157 308
56 370 -291 692 -659 612z m247 -258 c179 -84 221 -320 82 -463 -134 -138
-359 -107 -459 64 -37 63 -44 179 -15 244 69 157 242 225 392 155z m1620 -168
c98 -43 160 -132 168 -240 6 -85 -16 -152 -69 -212 -111 -126 -303 -132 -421
-12 -57 58 -82 118 -82 200 0 85 24 145 81 202 89 89 209 112 323 62z m-2036
-762 c4 -62 11 -150 16 -197 5 -47 14 -141 20 -210 6 -69 15 -170 20 -225 11
-122 26 -281 40 -440 6 -66 15 -163 20 -215 5 -52 12 -131 15 -176 l7 -81 -97
-47 c-70 -34 -103 -45 -116 -39 -17 8 -82 67 -289 267 -58 55 -200 191 -315
301 -304 290 -315 301 -315 317 0 9 11 40 25 71 14 30 31 92 37 137 l12 82 56
37 c68 45 181 124 370 257 80 56 182 129 228 161 46 32 111 79 145 104 l62 45
26 -19 c25 -18 27 -25 33 -130z m3653 74 c65 -33 110 -77 139 -137 87 -179
-36 -393 -235 -411 -70 -7 -126 8 -187 50 -62 41 -100 96 -119 175 -15 56 -15
68 0 125 8 34 28 80 43 102 30 43 106 99 156 115 50 15 156 6 203 -19z m-5010
-267 c179 -85 219 -322 79 -457 -61 -59 -89 -74 -158 -87 -99 -19 -222 32
-282 118 -31 45 -56 120 -56 167 0 85 54 186 126 236 89 61 193 69 291 23z
m-2061 -764 c144 -70 207 -246 139 -386 -85 -173 -306 -218 -450 -92 -170 150
-116 413 100 491 63 22 148 17 211 -13z m5920 -133 c140 -71 199 -241 131
-380 -30 -61 -74 -105 -140 -139 -32 -17 -59 -22 -118 -23 -64 0 -84 4 -134
30 -129 66 -189 218 -140 354 57 162 247 236 401 158z m-4548 -229 c132 -63
193 -213 142 -351 -61 -163 -241 -238 -393 -163 -255 124 -204 493 74 545 62
11 105 4 177 -31z m2432 -499 c186 -81 231 -320 88 -466 -178 -182 -490 -53
-490 202 0 208 212 347 402 264z m3852 -777 c62 -27 115 -77 146 -136 35 -67
38 -177 6 -247 -69 -149 -246 -211 -392 -138 -97 48 -151 128 -160 235 -17
214 205 373 400 286z m-7625 -98 c29 -14 70 -45 92 -70 126 -143 79 -365 -95
-450 -164 -80 -367 23 -406 207 -30 146 63 292 214 334 66 18 127 12 195 -21z
m2273 -174 c61 -30 106 -75 138 -135 36 -68 38 -178 4 -246 -27 -56 -83 -113
-137 -142 -58 -32 -193 -31 -252 1 -131 69 -193 217 -148 353 24 72 109 158
180 182 66 22 156 17 215 -13z m2805 -324 c184 -87 227 -324 85 -466 -60 -60
-119 -84 -205 -84 -56 0 -80 6 -120 26 -139 72 -198 218 -148 364 21 63 102
145 163 167 70 24 165 21 225 -7z m-678 -320 c2 -2 11 -34 18 -70 65 -311 405
-507 704 -406 44 15 60 16 76 7 31 -17 210 -169 223 -189 9 -13 6 -29 -13 -70
-58 -126 -55 -297 6 -428 l30 -65 -50 -46 c-63 -58 -375 -353 -496 -469 -49
-47 -135 -129 -190 -181 -55 -51 -102 -96 -105 -99 -3 -3 -86 -81 -185 -174
-99 -93 -223 -212 -275 -266 l-95 -97 -69 33 c-38 19 -73 37 -77 41 -11 11
-17 331 -24 1148 -3 363 -8 813 -11 1000 l-6 340 267 -2 c147 -1 270 -4 272
-7z m1642 -660 c105 -54 168 -164 159 -280 -9 -107 -63 -187 -160 -235 -145
-73 -317 -13 -388 135 -117 241 149 501 389 380z m1726 -1 c172 -84 214 -316
82 -453 -55 -57 -111 -84 -186 -90 -97 -7 -161 17 -226 82 -162 161 -84 429
140 487 50 13 134 2 190 -26z m-6105 -186 c108 -47 177 -164 167 -285 -9 -112
-94 -222 -197 -253 -221 -66 -436 144 -366 357 58 173 231 252 396 181z
m-1859 -6 c52 -24 112 -82 142 -138 32 -58 31 -193 -1 -252 -69 -130 -217
-193 -350 -149 -64 22 -135 84 -170 150 -36 70 -38 179 -3 246 41 79 105 133
191 161 40 13 142 3 191 -18z m4096 -1939 c57 -27 101 -72 135 -137 18 -33 23
-58 23 -122 0 -64 -5 -89 -23 -122 -58 -109 -147 -166 -262 -166 -115 0 -204
57 -262 166 -32 59 -32 184 -1 243 82 154 238 210 390 138z"/>
</g>
</svg>
